<svg xmlns="http://www.w3.org/2000/svg" xmlns:xlink="http://www.w3.org/1999/xlink" id="processonSvg1000" viewBox="135.0 142.0 689.0 728.0" width="689.0" height="728.0"><defs id="ProcessOnDefs1001"><marker id="ProcessOnMarker1016" markerUnits="userSpaceOnUse" orient="auto" markerWidth="16.23606797749979" markerHeight="10.550836550532098" viewBox="-1.0 -1.3763819204711736 16.23606797749979 10.550836550532098" refX="-1.0" refY="3.8990363547948754"><path id="ProcessOnPath1017" d="M12.0 3.8990363547948754L0.0 7.798072709589751V0.0Z" stroke="#323232" stroke-width="2.0" fill="#323232" transform="matrix(1.0,0.0,0.0,1.0,0.0,0.0)"/></marker><marker id="ProcessOnMarker1025" markerUnits="userSpaceOnUse" orient="auto" markerWidth="16.23606797749979" markerHeight="10.550836550532098" viewBox="-1.0 -1.3763819204711736 16.23606797749979 10.550836550532098" refX="-1.0" refY="3.8990363547948754"><path id="ProcessOnPath1026" d="M12.0 3.8990363547948754L0.0 7.798072709589751V0.0Z" stroke="#323232" stroke-width="2.0" fill="#323232" transform="matrix(1.0,0.0,0.0,1.0,0.0,0.0)"/></marker><marker id="ProcessOnMarker1037" markerUnits="userSpaceOnUse" orient="auto" markerWidth="16.23606797749979" markerHeight="10.550836550532098" viewBox="-1.0 -1.3763819204711736 16.23606797749979 10.550836550532098" refX="-1.0" refY="3.8990363547948754"><path id="ProcessOnPath1038" d="M12.0 3.8990363547948754L0.0 7.798072709589751V0.0Z" stroke="#323232" stroke-width="2.0" fill="#323232" transform="matrix(1.0,0.0,0.0,1.0,0.0,0.0)"/></marker><marker id="ProcessOnMarker1044" markerUnits="userSpaceOnUse" orient="auto" markerWidth="16.23606797749979" markerHeight="10.550836550532098" viewBox="-1.0 -1.3763819204711736 16.23606797749979 10.550836550532098" refX="-1.0" refY="3.8990363547948754"><path id="ProcessOnPath1045" d="M12.0 3.8990363547948754L0.0 7.798072709589751V0.0Z" stroke="#323232" stroke-width="2.0" fill="#323232" transform="matrix(1.0,0.0,0.0,1.0,0.0,0.0)"/></marker><marker id="ProcessOnMarker1048" markerUnits="userSpaceOnUse" orient="auto" markerWidth="16.23606797749979" markerHeight="10.550836550532098" viewBox="-1.0 -1.3763819204711736 16.23606797749979 10.550836550532098" refX="-1.0" refY="3.8990363547948754"><path id="ProcessOnPath1049" d="M12.0 3.8990363547948754L0.0 7.798072709589751V0.0Z" stroke="#323232" stroke-width="2.0" fill="#323232" transform="matrix(1.0,0.0,0.0,1.0,0.0,0.0)"/></marker><marker id="ProcessOnMarker1052" markerUnits="userSpaceOnUse" orient="auto" markerWidth="16.23606797749979" markerHeight="10.550836550532098" viewBox="-1.0 -1.3763819204711736 16.23606797749979 10.550836550532098" refX="-1.0" refY="3.8990363547948754"><path id="ProcessOnPath1053" d="M12.0 3.8990363547948754L0.0 7.798072709589751V0.0Z" stroke="#323232" stroke-width="2.0" fill="#323232" transform="matrix(1.0,0.0,0.0,1.0,0.0,0.0)"/></marker><marker id="ProcessOnMarker1099" markerUnits="userSpaceOnUse" orient="auto" markerWidth="16.23606797749979" markerHeight="10.550836550532098" viewBox="-1.0 -1.3763819204711736 16.23606797749979 10.550836550532098" refX="-1.0" refY="3.8990363547948754"><path id="ProcessOnPath1100" d="M12.0 3.8990363547948754L0.0 7.798072709589751V0.0Z" stroke="#323232" stroke-width="2.0" fill="#323232" transform="matrix(1.0,0.0,0.0,1.0,0.0,0.0)"/></marker><marker id="ProcessOnMarker1103" markerUnits="userSpaceOnUse" orient="auto" markerWidth="16.23606797749979" markerHeight="10.550836550532098" viewBox="-1.0 -1.3763819204711736 16.23606797749979 10.550836550532098" refX="-1.0" refY="3.8990363547948754"><path id="ProcessOnPath1104" d="M12.0 3.8990363547948754L0.0 7.798072709589751V0.0Z" stroke="#323232" stroke-width="2.0" fill="#323232" transform="matrix(1.0,0.0,0.0,1.0,0.0,0.0)"/></marker><marker id="ProcessOnMarker1107" markerUnits="userSpaceOnUse" orient="auto" markerWidth="16.23606797749979" markerHeight="10.550836550532098" viewBox="-1.0 -1.3763819204711736 16.23606797749979 10.550836550532098" refX="-1.0" refY="3.8990363547948754"><path id="ProcessOnPath1108" d="M12.0 3.8990363547948754L0.0 7.798072709589751V0.0Z" stroke="#323232" stroke-width="2.0" fill="#323232" transform="matrix(1.0,0.0,0.0,1.0,0.0,0.0)"/></marker><marker id="ProcessOnMarker1111" markerUnits="userSpaceOnUse" orient="auto" markerWidth="16.23606797749979" markerHeight="10.550836550532098" viewBox="-1.0 -1.3763819204711736 16.23606797749979 10.550836550532098" refX="-1.0" refY="3.8990363547948754"><path id="ProcessOnPath1112" d="M12.0 3.8990363547948754L0.0 7.798072709589751V0.0Z" stroke="#323232" stroke-width="2.0" fill="#323232" transform="matrix(1.0,0.0,0.0,1.0,0.0,0.0)"/></marker></defs><g id="ProcessOnG1002"><path id="ProcessOnPath1003" d="M135.0 142.0H824.0V870.0H135.0V142.0Z" fill="#ffffff"/><g id="ProcessOnG1004"><g id="ProcessOnG1005" transform="matrix(1.0,0.0,0.0,1.0,426.0,162.0)" opacity="1.0"><path id="ProcessOnPath1006" d="M13.333333333333334 0.0L86.66666666666667 0.0C104.44444444444444 0.0 104.44444444444444 40.0 86.66666666666667 40.0L13.333333333333334 40.0C-4.444444444444445 40.0 -4.444444444444445 0.0 13.333333333333334 0.0Z" stroke="#323232" stroke-width="2.0" stroke-dasharray="none" fill="#ccffe6"/><g id="ProcessOnG1007" transform="matrix(1.0,0.0,0.0,1.0,10.0,3.75)"><text id="ProcessOnText1008" fill="#323232" font-size="13" x="39.0" y="13.325" font-family="Arial" font-weight="normal" font-style="normal" text-decoration="none" family="Arial" text-anchor="middle" size="13">原始图片：正面</text><text id="ProcessOnText1009" fill="#323232" font-size="13" x="39.0" y="29.575" font-family="Arial" font-weight="normal" font-style="normal" text-decoration="none" family="Arial" text-anchor="middle" size="13">&amp;/侧面</text></g></g><g id="ProcessOnG1010" transform="matrix(1.0,0.0,0.0,1.0,416.25,229.0)" opacity="1.0"><path id="ProcessOnPath1011" d="M0.0 45.0L59.75 0.0L119.5 45.0L59.75 90.0L0.0 45.0Z" stroke="#323232" stroke-width="2.0" stroke-dasharray="none" fill="#ffcce6"/><g id="ProcessOnG1012" transform="matrix(1.0,0.0,0.0,1.0,10.0,36.875)"><text id="ProcessOnText1013" fill="#323232" font-size="13" x="48.75" y="13.325" font-family="Arial" font-weight="normal" font-style="normal" text-decoration="none" family="Arial" text-anchor="middle" size="13">是否为DICOM格式</text></g></g><g id="ProcessOnG1014"><path id="ProcessOnPath1015" d="M476.0 202.0L476.0 215.5L476.0 215.5L476.0 216.5" stroke="#323232" stroke-width="2.0" stroke-dasharray="none" fill="none" marker-end="url(#ProcessOnMarker1016)"/></g><g id="ProcessOnG1018" transform="matrix(1.0,0.0,0.0,1.0,419.5,343.0)" opacity="1.0"><path id="ProcessOnPath1019" d="M0.0 0.0L113.0 0.0L113.0 48.0L0.0 48.0Z" stroke="#323232" stroke-width="2.0" stroke-dasharray="none" fill="#ffe6cc"/><g id="ProcessOnG1020" transform="matrix(1.0,0.0,0.0,1.0,10.0,7.75)"><text id="ProcessOnText1021" fill="#323232" font-size="13" x="45.5" y="13.325" font-family="Arial" font-weight="normal" font-style="normal" text-decoration="none" family="Arial" text-anchor="middle" size="13">将DICOM格式转</text><text id="ProcessOnText1022" fill="#323232" font-size="13" x="45.5" y="29.575" font-family="Arial" font-weight="normal" font-style="normal" text-decoration="none" family="Arial" text-anchor="middle" size="13">化为jpg、png</text></g></g><g id="ProcessOnG1023"><path id="ProcessOnPath1024" d="M476.0 319.0L476.0 331.0L476.0 331.0L476.0 332.0" stroke="#323232" stroke-width="2.0" stroke-dasharray="none" fill="none" marker-end="url(#ProcessOnMarker1025)"/><g id="ProcessOnG1027" transform="matrix(1.0,0.0,0.0,1.0,476.0,317.375)"><path id="ProcessOnPath1028" d="M0 0H10.0V16.25H0Z" fill="#fff" transform="matrix(1.0,0.0,0.0,1.0,-5.0,0.0)"/><text id="ProcessOnText1029" fill="#323232" font-size="13" x="0.0" y="13.325" font-family="Arial" font-weight="normal" font-style="normal" text-decoration="none" family="Arial" text-anchor="middle" size="13">是</text></g></g><g id="ProcessOnG1030" transform="matrix(1.0,0.0,0.0,1.0,319.75,512.0)" opacity="1.0"><path id="ProcessOnPath1031" d="M0.0 0.0L106.25 0.0L106.25 57.0L0.0 57.0Z" stroke="#323232" stroke-width="2.0" stroke-dasharray="none" fill="#ff66b3"/><g id="ProcessOnG1032" transform="matrix(1.0,0.0,0.0,1.0,10.0,12.25)"><text id="ProcessOnText1033" fill="#323232" font-size="13" x="42.125" y="13.325" font-family="Arial" font-weight="normal" font-style="normal" text-decoration="none" family="Arial" text-anchor="middle" size="13">U-net网络分割，</text><text id="ProcessOnText1034" fill="#323232" font-size="13" x="42.125" y="29.575" font-family="Arial" font-weight="normal" font-style="normal" text-decoration="none" family="Arial" text-anchor="middle" size="13">找到重点区域</text></g></g><g id="ProcessOnG1035"><path id="ProcessOnPath1036" d="M416.25 274.0L386.25 274.0L386.25 434.0352761804101L424.6276353276565 434.0352761804101" stroke="#323232" stroke-width="2.0" stroke-dasharray="none" fill="none" marker-end="url(#ProcessOnMarker1037)"/><g id="ProcessOnG1039" transform="matrix(1.0,0.0,0.0,1.0,386.25,350.0814557540333)"><path id="ProcessOnPath1040" d="M0 0H10.0V16.25H0Z" fill="#fff" transform="matrix(1.0,0.0,0.0,1.0,-5.0,0.0)"/><text id="ProcessOnText1041" fill="#323232" font-size="13" x="0.0" y="13.325" font-family="Arial" font-weight="normal" font-style="normal" text-decoration="none" family="Arial" text-anchor="middle" size="13">否</text></g></g><g id="ProcessOnG1042"><path id="ProcessOnPath1043" d="M476.0 470.0L372.875 470.0L372.875 496.7639320225002" stroke="#323232" stroke-width="2.0" stroke-dasharray="none" fill="none" marker-end="url(#ProcessOnMarker1044)"/></g><g id="ProcessOnG1046"><path id="ProcessOnPath1047" d="M372.875 569.0L372.875 599.5L372.875 599.5L372.875 614.7639320225002" stroke="#323232" stroke-width="2.0" stroke-dasharray="none" fill="none" marker-end="url(#ProcessOnMarker1048)"/></g><g id="ProcessOnG1050"><path id="ProcessOnPath1051" d="M476.0 391.0L476.0 407.0L476.0 407.0L476.0 407.7639320225002" stroke="#323232" stroke-width="2.0" stroke-dasharray="none" fill="none" marker-end="url(#ProcessOnMarker1052)"/></g><g id="ProcessOnG1054" transform="matrix(1.0,0.0,0.0,1.0,426.0,423.0)" opacity="1.0"><path id="ProcessOnPath1055" d="M17.0 0.0L100.0 0.0L83.0 51.0L0.0 51.0L17.0 0.0Z" stroke="#323232" stroke-width="2.0" stroke-dasharray="none" fill="#ccffff"/><g id="ProcessOnG1056" transform="matrix(1.0,0.0,0.0,1.0,15.0,9.25)"><text id="ProcessOnText1057" fill="#323232" font-size="13" x="34.0" y="13.325" font-family="Arial" font-weight="normal" font-style="normal" text-decoration="none" family="Arial" text-anchor="middle" size="13">调整图片尺寸</text><text id="ProcessOnText1058" fill="#323232" font-size="13" x="34.0" y="29.575" font-family="Arial" font-weight="normal" font-style="normal" text-decoration="none" family="Arial" text-anchor="middle" size="13">、分辨率</text></g></g><g id="ProcessOnG1059" transform="matrix(1.0,0.0,0.0,1.0,322.875,630.0)" opacity="1.0"><path id="ProcessOnPath1060" d="M17.0 0.0L100.0 0.0L83.0 51.0L0.0 51.0L17.0 0.0Z" stroke="#323232" stroke-width="2.0" stroke-dasharray="none" fill="#b3ff66"/><g id="ProcessOnG1061" transform="matrix(1.0,0.0,0.0,1.0,15.0,9.25)"><text id="ProcessOnText1062" fill="#323232" font-size="13" x="34.0" y="13.325" font-family="Arial" font-weight="normal" font-style="normal" text-decoration="none" family="Arial" text-anchor="middle" size="13">VGG网络实</text><text id="ProcessOnText1063" fill="#323232" font-size="13" x="34.0" y="29.575" font-family="Arial" font-weight="normal" font-style="normal" text-decoration="none" family="Arial" text-anchor="middle" size="13">现分类</text></g></g><g id="ProcessOnG1064" transform="matrix(1.0,0.0,0.0,1.0,371.75,790.0)" opacity="1.0"><path id="ProcessOnPath1065" d="M0.0 0.0L208.5 0.0L208.5 60.0L0.0 60.0Z" stroke="#323232" stroke-width="2.0" stroke-dasharray="none" fill="#ffff33"/><g id="ProcessOnG1066" transform="matrix(1.0,0.0,0.0,1.0,10.0,21.875)"><text id="ProcessOnText1067" fill="#323232" font-size="13" x="93.25" y="13.325" font-family="Arial" font-weight="normal" font-style="normal" text-decoration="none" family="Arial" text-anchor="middle" size="13">综合正面与侧面信息，返回诊断结果</text></g></g><g id="ProcessOnG1068" transform="matrix(1.0,0.0,0.0,1.0,587.75,599.0)" opacity="1.0"><path id="ProcessOnPath1069" d="M0.0 0.0L106.25 0.0L106.25 57.0L0.0 57.0Z" stroke="#323232" stroke-width="2.0" stroke-dasharray="none" fill="#66ffff"/><g id="ProcessOnG1070" transform="matrix(1.0,0.0,0.0,1.0,10.0,4.125)"><text id="ProcessOnText1071" fill="#323232" font-size="13" x="42.125" y="13.325" font-family="Arial" font-weight="normal" font-style="normal" text-decoration="none" family="Arial" text-anchor="middle" size="13">RNN+CNN实现</text><text id="ProcessOnText1072" fill="#323232" font-size="13" x="42.125" y="29.575" font-family="Arial" font-weight="normal" font-style="normal" text-decoration="none" family="Arial" text-anchor="middle" size="13">指定区域的精准学</text><text id="ProcessOnText1073" fill="#323232" font-size="13" x="42.125" y="45.825" font-family="Arial" font-weight="normal" font-style="normal" text-decoration="none" family="Arial" text-anchor="middle" size="13">习</text></g></g><g id="ProcessOnG1074" transform="matrix(1.0,0.0,0.0,1.0,155.0,496.0)" opacity="1.0"><path id="ProcessOnPath1075" d="M160.0 0.0Q151.0 0.0 151.0 9.0L151.0 160.0Q151.0 169.0 138.0 169.0Q151.0 169.0 151.0 178.0L151.0 329.0Q151.0 338.0 160.0 338.0" stroke="#323232" stroke-width="2.0" stroke-dasharray="none" fill="none"/><path id="ProcessOnPath1076" d="M0.0 0.0L160.0 0.0L160.0 338.0L0.0 338.0Z" stroke="none" stroke-width="0.0" stroke-dasharray="none" fill="none"/><g id="ProcessOnG1077" transform="matrix(1.0,0.0,0.0,1.0,0.0,125.875)"><text id="ProcessOnText1078" fill="#323232" font-size="23" x="131.0" y="23.575000000000003" font-family="Arial" font-weight="normal" font-style="normal" text-decoration="none" family="Arial" text-anchor="end" size="23">深度</text><text id="ProcessOnText1079" fill="#323232" font-size="23" x="131.0" y="52.325" font-family="Arial" font-weight="normal" font-style="normal" text-decoration="none" family="Arial" text-anchor="end" size="23">学习</text><text id="ProcessOnText1080" fill="#323232" font-size="23" x="131.0" y="81.075" font-family="Arial" font-weight="normal" font-style="normal" text-decoration="none" family="Arial" text-anchor="end" size="23">方法</text></g></g><g id="ProcessOnG1081" transform="matrix(1.0,0.0,0.0,1.0,703.0,547.0)" opacity="1.0"><path id="ProcessOnPath1082" d="M0.0 211.0Q9.0 211.0 9.0 202.0L9.0 114.5Q9.0 105.5 22.0 105.5Q9.0 105.5 9.0 96.5L9.0 9.0Q9.0 0.0 0.0 0.0" stroke="#323232" stroke-width="2.0" stroke-dasharray="none" fill="none"/><path id="ProcessOnPath1083" d="M0.0 0.0L101.0 0.0L101.0 211.0L0.0 211.0Z" stroke="none" stroke-width="0.0" stroke-dasharray="none" fill="none"/><g id="ProcessOnG1084" transform="matrix(1.0,0.0,0.0,1.0,27.0,81.75)"><text id="ProcessOnText1085" fill="#323232" font-size="19" x="0.0" y="19.475" font-family="Arial" font-weight="normal" font-style="normal" text-decoration="none" family="Arial" text-anchor="start" size="19">创新</text><text id="ProcessOnText1086" fill="#323232" font-size="19" x="0.0" y="43.225" font-family="Arial" font-weight="normal" font-style="normal" text-decoration="none" family="Arial" text-anchor="start" size="19">模型</text></g></g><g id="ProcessOnG1087" transform="matrix(1.0,0.0,0.0,1.0,458.5,523.0)" opacity="1.0"><path id="ProcessOnPath1088" d="M0.0 0.0L106.25 0.0L106.25 57.0L0.0 57.0Z" stroke="#323232" stroke-width="2.0" stroke-dasharray="none" fill="#66ffff"/><g id="ProcessOnG1089" transform="matrix(1.0,0.0,0.0,1.0,10.0,12.25)"><text id="ProcessOnText1090" fill="#323232" font-size="13" x="42.125" y="13.325" font-family="Arial" font-weight="normal" font-style="normal" text-decoration="none" family="Arial" text-anchor="middle" size="13">Mask方法的轮廓</text><text id="ProcessOnText1091" fill="#323232" font-size="13" x="42.125" y="29.575" font-family="Arial" font-weight="normal" font-style="normal" text-decoration="none" family="Arial" text-anchor="middle" size="13">拟合</text></g></g><g id="ProcessOnG1092" transform="matrix(1.0,0.0,0.0,1.0,555.875,692.0)" opacity="1.0"><path id="ProcessOnPath1093" d="M0.0 0.0L106.25 0.0L106.25 57.0L0.0 57.0Z" stroke="#323232" stroke-width="2.0" stroke-dasharray="none" fill="#66ffff"/><g id="ProcessOnG1094" transform="matrix(1.0,0.0,0.0,1.0,10.0,12.25)"><text id="ProcessOnText1095" fill="#323232" font-size="13" x="42.125" y="13.325" font-family="Arial" font-weight="normal" font-style="normal" text-decoration="none" family="Arial" text-anchor="middle" size="13">one-shot方法应</text><text id="ProcessOnText1096" fill="#323232" font-size="13" x="42.125" y="29.575" font-family="Arial" font-weight="normal" font-style="normal" text-decoration="none" family="Arial" text-anchor="middle" size="13">对罕见病</text></g></g><g id="ProcessOnG1097"><path id="ProcessOnPath1098" d="M372.875 681.0L372.875 735.5L476.0 735.5L476.0 774.7639320225002" stroke="#323232" stroke-width="2.0" stroke-dasharray="none" fill="none" marker-end="url(#ProcessOnMarker1099)"/></g><g id="ProcessOnG1101"><path id="ProcessOnPath1102" d="M609.0 749.0C609.0 804.6704589526618 476.0 734.3295410473382 476.0 774.7639320225002" stroke="#323232" stroke-width="2.0" stroke-dasharray="none" fill="none" marker-end="url(#ProcessOnMarker1103)"/></g><g id="ProcessOnG1105"><path id="ProcessOnPath1106" d="M587.75 627.5C508.86343587149963 627.5 476.0 711.1134358714996 476.0 774.7639320225002" stroke="#323232" stroke-width="2.0" stroke-dasharray="none" fill="none" marker-end="url(#ProcessOnMarker1107)"/></g><g id="ProcessOnG1109"><path id="ProcessOnPath1110" d="M511.625 580.0C511.625 665.2001320421512 476.0 704.7998679578488 476.0 774.7639320225002" stroke="#323232" stroke-width="2.0" stroke-dasharray="none" fill="none" marker-end="url(#ProcessOnMarker1111)"/></g></g></g></svg>